PathFileType	4	(X/Y/Z)	RBDS023\RBDS023runT25.trc
DataRate	CameraRate	NumFrames	NumMarkers	Units	OrigDataRate	OrigDataStartFrame	OrigNumFrames
150.000000	150.000000	5	33	mm	150.000000	562	4500
Frame#	Time	L.ASIS			L.Heel.Bottom			L.Heel.Lateral			L.Heel.Top			L.Iliac.Crest			L.MT1			L.MT5			L.PSIS			L.Shank.Bottom.Lateral			L.Shank.Bottom.Medial			L.Shank.Top.Lateral			L.Shank.Top.Medial			L.Thigh.Bottom.Lateral			L.Thigh.Bottom.Medial			L.Thigh.Top.Lateral			L.Thigh.Top.Medial			R.ASIS			R.ASY			R.Heel.Bottom			R.Heel.Lateral			R.Heel.Top			R.Iliac.Crest			R.MT1			R.MT5			R.PSIS			R.Shank.Bottom.Lateral			R.Shank.Bottom.Medial			R.Shank.Top.Lateral			R.Shank.Top.Medial			R.Thigh.Bottom.Lateral			R.Thigh.Bottom.Medial			R.Thigh.Top.Lateral			R.Thigh.Top.Medial			
		X1	Y1	Z1	X2	Y2	Z2	X3	Y3	Z3	X4	Y4	Z4	X5	Y5	Z5	X6	Y6	Z6	X7	Y7	Z7	X8	Y8	Z8	X9	Y9	Z9	X10	Y10	Z10	X11	Y11	Z11	X12	Y12	Z12	X13	Y13	Z13	X14	Y14	Z14	X15	Y15	Z15	X16	Y16	Z16	X17	Y17	Z17	X18	Y18	Z18	X19	Y19	Z19	X20	Y20	Z20	X21	Y21	Z21	X22	Y22	Z22	X23	Y23	Z23	X24	Y24	Z24	X25	Y25	Z25	X26	Y26	Z26	X27	Y27	Z27	X28	Y28	Z28	X29	Y29	Z29	X30	Y30	Z30	X31	Y31	Z31	X32	Y32	Z32	X33	Y33	Z33	

563	3.746666666666667	2335.189474218501	985.4968645847804	905.5193180906556	2175.994348042778	30.04937365817691	988.5597199884279	2204.628771106116	52.10989461541247	950.7647214646846	2188.637035659534	75.7674618948531	994.3085264276863	2256.009349036626	1047.352183308863	862.1183516473952	2402.211010851925	35.734523970082	1032.954374931901	2368.90974262398	35.69540245389994	914.9693950192528	2157.299984315574	1014.960008429558	969.3186294767629	2290.843994115953	147.0874601787035	931.1907621748081	2246.23838605282	162.1032716294738	951.4735423264245	2306.757740329923	222.0688878120672	904.535169549811	2263.663769804671	241.8538759359028	929.0498548197139	2355.848956105108	643.473227560929	846.2888469943215	2296.745816967429	621.7101585803015	879.0677547394723	2309.189848263809	742.7776601927577	833.967402065954	2253.051342156868	722.6606776763376	866.5453927958665	2342.366958812532	963.8587343667497	1118.764608022766	1887.184980985146	264.6772285426414	1088.51384549226	1802.650697606175	445.8327890447147	1065.523121006025	1827.329956145014	424.5749484596446	1110.27894982208	1850.598486936205	441.9288998024206	1062.797807598706	2284.2648922546	1043.913779095369	1169.894448509092	1839.24182016067	224.2296938813388	1047.510716384928	1838.24393246071	262.9163553953958	1156.960421939305	2163.731812713644	1011.097782348907	1077.068794712394	1955.700305313829	394.8058461878402	1125.665724472297	1946.570770422477	440.1715945765179	1094.901239202484	2031.554542694955	421.4018838311857	1139.264295559964	2021.943359407007	464.2387791050439	1107.989688442598	2272.8720846458	564.8420334641601	1152.586892634612	2223.30223326948	560.4454900202501	1098.118805817208	2245.709496344203	670.4587384642606	1164.805074668289	2200.122790725625	666.6246162904009	1112.826695691033	
564	3.753333333333333	2333.192089914381	982.0682219368922	904.6257071352212	2159.535776552132	30.30127964989443	988.625460793824	2188.117803853388	52.39737313253784	950.7499387670832	2172.106718428828	76.06110728354261	994.28532695131	2252.612180455686	1042.241449757955	862.4299101354329	2385.602227350392	36.09976637865319	1032.949584376631	2352.2984833812	36.09644912666986	914.9850443301285	2155.189217944668	1011.954782518608	970.3052286971983	2276.466432233057	146.54936570129	931.0193750795542	2232.213050290398	162.8539485023527	951.0641319036135	2294.560631454656	221.0106624024741	904.2396426436346	2251.900706688183	241.9925383509449	928.552967333716	2351.215455292914	639.8720805449414	845.9043932972061	2292.192816319181	618.7797346560609	879.277069109637	2305.393350146282	739.5785807426432	833.7013085427877	2249.42016801435	720.1169261497259	866.8905586750951	2340.554606932289	959.9273651510973	1118.677563876956	1898.966084225228	264.7561727754237	1089.050105401364	1813.401175068556	445.4939602917001	1067.127464141654	1838.722398960057	424.3237189849682	1111.688211312932	1861.287179681451	441.8153843039968	1063.890486924767	2281.411053925046	1039.504030630749	1170.532095642654	1850.843017906308	224.0667858174595	1048.643959154893	1851.011167283115	262.656301305204	1157.924368935209	2161.978059303583	1008.009451014335	1077.576389057269	1967.196538904864	394.1815712338617	1126.290784958506	1958.114040913253	439.8207559836583	1095.929752042824	2043.201438680005	420.3956154724791	1139.893237474073	2033.637624398118	463.4862483908439	1108.908566976965	2281.531581722943	562.5689682293678	1153.576124904528	2231.178083931037	556.4638678786017	1100.117044222472	2251.505879999288	667.4135484295276	1165.890441038481	2205.159980943974	661.960146197919	1114.817194780774	
565	3.76	2331.415598247365	979.345464495669	903.8336522244277	2142.944961416241	30.47606880304642	988.6500774189035	2171.479580092162	52.5642857318006	950.6802470725563	2155.438650698174	76.2812935817558	994.1721422791104	2249.291609579322	1038.222359141167	862.7628628252254	2368.871854815338	36.33748512193807	1032.871919382294	2335.612690448942	36.29406603464606	914.9812568534542	2153.333216822219	1009.691647653339	971.0692383323716	2261.668455852839	146.0053129805219	930.7470925279474	2217.775384840992	163.449045973551	950.5937355248211	2281.699173264539	219.9435979028756	903.8785589612382	2239.468582711243	241.9797388703834	928.0176466094255	2345.999968367771	636.5630721922897	845.5732533007616	2286.89793519774	616.2818796967001	879.3215431851758	2301.356992926631	736.8144632558262	833.5132342431798	2245.412683716324	718.1415085015632	867.1559672061442	2338.801322649968	956.954727587339	1118.766461390374	1911.478534088001	263.9379367785295	1089.316759721862	1824.132523929047	443.8755924059619	1068.621933903561	1850.150866812066	422.8765048225729	1112.988884067032	1871.963965391229	440.628501675303	1064.90681946746	2278.302904776597	1036.253920991374	1170.995585926432	1863.449565127849	222.828299993334	1049.443202110986	1864.500826110648	261.194056870679	1158.578183992231	2160.30626604726	1005.664851334157	1077.909491388945	1978.876448143086	392.9627912302449	1126.804344835257	1969.641769871438	438.8339258688291	1096.863298927994	2054.902822731389	419.1534037508922	1140.428977354658	2045.190849031835	462.4596218409724	1109.752500139546	2290.418306817427	561.3043552450233	1154.603450563399	2239.285994831753	553.4112407118727	1102.263875791123	2257.506103760479	665.2702476778295	1167.068568798598	2210.357229561013	658.1186130726218	1117.010082125054	
566	3.766666666666667	2329.873315979054	977.3131358529943	903.2088942834184	2126.231978544115	30.60166030589683	988.6399535331796	2154.733287867804	52.6417698219157	950.575614939866	2138.661565606118	76.44993247973615	993.9962254237585	2246.213656524325	1035.354376461939	863.0786249120115	2352.048211900888	36.39738531974884	1032.759375387263	2318.86819318003	36.30196983184577	914.9721822415473	2151.748003004427	1008.167651855854	971.5894799595461	2246.523049525722	145.4780656468303	930.4271745591752	2202.988966067203	163.9156143513931	950.1187657913698	2268.255282271744	218.9066109667448	903.5018987372529	2226.441109169736	241.863252041017	927.4934078956519	2340.250806230001	633.5996582363925	845.2731506488557	2280.906063621878	614.2468742099595	879.1545654370975	2297.107360941789	734.521831941885	833.3913122265441	2241.052409705306	716.7474554427885	867.3124836507875	2337.132749311139	955.0132192042087	1119.034423731619	1924.669548988054	262.2242855765816	1089.332261006754	1834.799847800222	440.9486164142926	1069.981108952871	1861.549359223942	420.2110606044409	1114.1551073355	1882.579294526105	438.3482342280362	1065.837352028321	2275.027776909313	1034.196948425387	1171.283003950224	1877.02188988301	220.5167737890183	1049.904253985462	1878.623752344347	258.5470637889394	1158.935605996322	2158.727932099481	1004.070609779906	1078.065976967061	1990.670812273252	391.1590639605083	1127.214492991652	1981.082071314538	437.2100781095131	1097.695090808004	2066.588051831286	417.6925935337958	1140.872536083038	2056.526476407607	461.1683681876818	1110.51874290669	2299.440072541774	561.0826022791389	1155.641447575518	2247.574302217336	551.3376042041822	1104.490072774216	2263.635933905962	664.0653232210653	1168.300667485986	2215.681476637812	655.1500065562331	1119.337469919423	
567	3.773333333333333	2328.57297661039	975.938150340842	902.800672953337	2109.414934305652	30.70962613701239	988.5971252990919	2137.902355276923	52.66430187319294	950.4473571247156	2121.803116559986	76.59454854956577	993.7730791552627	2243.549978099988	1033.632701732047	863.3402663192951	2335.156515418482	36.27808183924969	1032.640547678738	2302.077054352513	36.16096102391415	914.9690048025702	2150.438620618551	1007.365744714934	971.8661266675564	2231.094996429378	145.0117766066807	930.0998605069258	2187.910921212231	164.3060976755493	949.6820888903536	2254.309284182855	217.9580479573953	903.1500714752989	2212.891555018649	241.7125687875846	927.01952073634	2334.018033879286	631.0347784830556	844.9984686164654	2274.277897007068	612.7096860282564	878.7725402432396	2292.665761243832	732.7300443068145	833.3296665669922	2236.36867910415	715.9458174722738	867.3548079760026	2335.572759627811	954.1291421727527	1119.4676335107	1938.502916841845	259.6341850484213	1089.121357118198	1845.377870661621	436.6912794182118	1071.184290734653	1872.874721988472	416.3121951357354	1115.164106436264	1893.100028092628	434.9607134728591	1066.672827530953	2271.6972886168	1033.312487046673	1171.404513949013	1891.526616036961	217.1564751377558	1050.030582256559	1893.313591706687	254.7518115357663	1159.016686904223	2157.258962661314	1003.226280331642	1078.056928593501	2002.521946305328	388.783020956104	1127.528858008777	1992.376817651046	434.9504661428774	1098.417380002677	2078.194680194648	416.0276530161147	1141.225553754004	2067.579433637723	459.6165172133665	1111.203205483431	2308.484341542232	561.9148995710428	1156.666661455891	2255.965501951464	550.2779301284654	1106.725338161226	2269.806909225492	663.8172796733585	1169.551536836309	2221.083412071809	653.0938110698427	1121.731121892371	
